<?xml version="1.0" standalone="no"?>
<!DOCTYPE svg PUBLIC "-//W3C//DTD SVG 20010904//EN"
 "http://www.w3.org/TR/2001/REC-SVG-20010904/DTD/svg10.dtd">
<svg version="1.0" xmlns="http://www.w3.org/2000/svg"
 width="863.000000pt" height="863.000000pt" viewBox="0 0 863.000000 863.000000"
 preserveAspectRatio="xMidYMid meet">
<metadata>
Created by potrace 1.14, written by Peter Selinger 2001-2017
</metadata>
<g transform="translate(0.000000,863.000000) scale(0.100000,-0.100000)"
fill="#000000" stroke="none">
<path d="M2 6560 c0 -1528 3 -2070 12 -2071 33 -4 4153 -5 4163 -1 10 3 13
427 13 2073 l0 2069 -2094 0 -2093 0 -1 -2070z"/>
<path d="M4522 6563 l3 -2068 2048 0 2047 0 0 2067 0 2068 -2050 0 -2050 0 2
-2067z"/>
<path d="M0 2093 l0 -2093 2090 0 c1150 0 2091 3 2091 8 6 34 2 4157 -3 4165
-5 9 -528 12 -2093 12 l-2085 1 0 -2093z"/>
<path d="M4520 2093 l0 -2093 2050 0 2050 0 0 2093 0 2094 -2050 0 -2050 0 0
-2094z"/>
</g>
</svg>
