<svg xmlns="http://www.w3.org/2000/svg" viewBox="0 0 154 130.44">
  <defs>
    <style>
      .cls-1 {
        fill: #fff;
      }
    </style>
  </defs>
  <g id="Layer_2" data-name="Layer 2">
    <g id="Layer_1-2" data-name="Layer 1">
      <path class="cls-1" d="M150.65,129.85c-1.33.19-.07-1.37-.38-1.71.61-1-.57-.74-.4-2.08a16.5,16.5,0,0,1,0-2.11c.19-1-.39-1.34,0-2.11.16-.42,0-1.22.44-1.67,0-.19.46-.31.55-.71-.27-.69.4-1.69,0-2.46a5.92,5.92,0,0,1,0-2.1c.35-.64.13-1.28.15-2-.31-.57,0-1.14,0-1.71.14-.29-.2-.67,0-.94-.43-.19.08-.31.32-.54s.6-.65.23-1c-.53-.67.11-1.38.05-2.08-.64-.71.07-1.42-.06-2.1-.31-.64.06-1.28,0-1.92-.31-.7.79-1.25.19-1.93-.21-.41.1-.87,0-1.27s-.38-.7-.4-1c-.23-.63-.71-1.12-1-1.72-.78-.74-1.3-1.14-1-2a3.82,3.82,0,0,0-.09-2.52,1.6,1.6,0,0,1-.1-2c-.31-.57-.81-1.9.55-1.87-.24-.27-.08-.62,0-.87.63-.23.21-.24.4-.5-.25-.54.23-1.49,0-2.05.59-.45-.84-.87-.2-1.29-.38-.42.42-.85-.2-1.29-.45-.77-.06-1.54,0-2.31.79-.43,0-1.13,0-1.55-.11-.15-.36-.13-.18-.25s.07-.3-.18-.47a8.88,8.88,0,0,1-1.14-2c.19-.44-.05-.94-.1-1.45.66-.51,0-1,.06-1.48a4.23,4.23,0,0,1,.19-2.16c.3-.2.11-.3.78-.55.51-.45.31-1.19.78-1.8.7-.46.14-1,0-1.45-.61-.28-.8-.58,0-.86.22-.37.11-.68-.2-1.06-.29-.58-.56-1.17,0-1.75-.06-.45-.77-1,.11-1.37a1.44,1.44,0,0,0,.58-1.09c-.57-.62.43-1.33.28-2-1.19-.71.74-1.35.2-2.08-.73-.63,0-1.21-.4-1.84a2.76,2.76,0,0,1-.18-2c0-.35-.44-.65-.41-1,.33-.3,0-.65,0-1-.3-.7.27-1.4,0-2.1,0-.51-.42-1.07,0-1.58.37-.34.64-.64.21-1,.12-.68-.31-1.27.21-1.92.39-.25.48-.43.17-.67.08-.44.4-.67.47-1a2,2,0,0,0,.7-2.05c-.24-.54.11-1.29-.1-1.76,0-.29-.42-.52-.3-.88a2.82,2.82,0,0,1,0-1.26c.12-.77-.31-1.32-.5-2,.15-.57,0-1-1-1.54-.53-.5-.38-1-.66-1.65.35-.95.22-1.51,1-2.24.12-.21,0-.42.32-.68-.26-.14-.19-.24,0-.39.56-.25.08-.37.37-.62a3.81,3.81,0,0,1,.13-1.14c.33-.4.1-.76.25-1.17-.19-.7.38-1.42,0-2.12-.1-.8.57-1.61,0-2.42.63-.8.17-1.61,0-2.42.3-.66,0-1.65.1-2.42s-.2-1.83.09-2.42a1.25,1.25,0,0,0,.17-1.56c-.06-.85.4-.25.23-1.53-.21-.29-.1-.92.07-2.22.2-.56.66-.66.71-.84-.16-.17.82-.41.58-1.24-.76-1.06-.66-.1,0-.77.39-.68-.3-1,.2-1.19.07.13.11-.48,0-.66.49-.77.46-.21.41.24-.35.55-1.49,1.32-1.22.83-.75.45-1.79-.48-1.95,0-.51-.23-1.3-1-1-.31-.88.29-.83.27-1.38-.09-.75-.2-1.27.17-2,0-.12,1.11-.38-.08-.9-.19-.6.22-.41.34-1.27-.24-.32.2-.88.72-1.28-.12-.63.12-1.05-.54-1.59-.62-.28-.33-.52-1.08-.83-.26-.75-.51-1.24.11-1.85-1.26-.37-1-1-1.3-1.44-.62-.72-.68-1.07,0-1.61,1.07a2.21,2.21,0,0,1-1.42.66c-.78-.25-1.65.59-2.44-.17-.62.67-1.33-.17-1.95,0a3.26,3.26,0,0,0-1.49.78c-.26-.57-.52,1-.8.55-.3-.91-.73.89-1,0-.54-.9-1.22.53-1.75.2-.32.53-.27.32-.5.4-.24.32-.5-.12-.83.27-.32-.64-.51.74-.78.38-.4-.07-.87.65-1.32.11-.8-.87-1.52.44-2.29.2A4,4,0,0,1,116.6,5c-.48-1-1.07-.37-1.58-.56-.38-.87-.75-1.28-1.17-.52-.29-.05-.74.14-1,0-.52-.15-.82.83-1.36.42-.48.31-1,.61-1.47,0a.89.89,0,0,0-1.47.05c-.38.28-.68-.57-1.1.18-.62.57-1.16-.21-1.79-.16-.77-.47-1.62.16-2.41,0-.43-.33-.65-.39-1,.37-.75.12-1.6-.45-2.36-.18A4.64,4.64,0,0,1,98,4.3a7.64,7.64,0,0,1-1.72-.14,3.21,3.21,0,0,0-1.63-.6,7.77,7.77,0,0,0-2.13-.91C92.27,2,92,3,91.71,2.4c-.45-.35-.91.08-1.37-.08-.34.24-.62-.18-1-.33a1.19,1.19,0,0,0-1-.21c-.7-.13-1.34-.7-2.05-.78s-1.32-.5-2-.23c-.68-.39-1.37-.6-2,0-.38.28-.29.55-.58.35-.33.35-.6.51-1,.24-.71-.68-1.24.59-1.89.4-.68.62-1.54-.09-2.23,0-.69-.55-1.14.21-1.78.42a6.55,6.55,0,0,0-1.65,0,3.07,3.07,0,0,0-1.67-.05c-.56-.12-1.12.67-1.68,0-.56-.29-1.12.29-1.68,0a1.37,1.37,0,0,1-1.48,0c-.49.23-1,.56-1.47,0-.39.22-.84,0-1.21,0-.33-.23-.39.51-.66-.35s-1-.13-1.4-.52A1.88,1.88,0,0,0,60.81,1c-.67.27-1.52-.72-2.18,0-.44.16-.86.47-1.3.33s-.86,1.1-1.31.24a2.24,2.24,0,0,1-1.91,0c-.52-.6-.94.26-1.37-.13s-.84.74-1.35-.34c-.52.31-1-.37-1.58-.31A3.93,3.93,0,0,0,48.25.47,6.56,6.56,0,0,0,46.08,0a12.08,12.08,0,0,1-1.75.21c-.45-.44-.94-.18-1.44,0-.49-.23-1,0-1.45,0a5.17,5.17,0,0,0-1.55.1c-.53-.34-1.06.3-1.52.3a2.89,2.89,0,0,0-1.28.92,1.28,1.28,0,0,1-1.05,0A4.35,4.35,0,0,1,34,2a10.25,10.25,0,0,1-1.87.78c-.75,0-1.5,0-2.24,0-.56.55-1.08.11-1.59-.1s-1-.54-1.6-.1c-.38,0-.9.22-1.28,0a2.11,2.11,0,0,1-1-.53c-.65-.42-1.28-.11-2.06-.26-.43,0-.86.19-1.29,0-.43.31-.87-.11-1.3,0a7,7,0,0,0-3.22,0,11.59,11.59,0,0,0-3.22,0c-.82.44-1.54-.48-2.42-.4a1.24,1.24,0,0,0-1.67,0,3.33,3.33,0,0,0-1.68,0,1.49,1.49,0,0,0-1.34.21,1,1,0,0,1-1.36.19,2.39,2.39,0,0,1-1.54,0,1.51,1.51,0,0,1-1.11,0c-.42.29-.13,1.45.17,1.73,0,.09.06,1.13.3.79.2.48-.21,1,0,1.53A2.16,2.16,0,0,1,2.5,8c-.37.35.56.84-.24,1.26s-.61.82-.06,1.29a3.85,3.85,0,0,1,.21,1.92c-.4.37,0,.64.1,1,.76.77,1.62,1.51.86,2.26.59.62-.16,1.13.19,1.78-.52.39.41.82,0,1.21s-.11.85-.46,1.19c0,.35-.07.64-.9.93-1.32.34-.58.78-.88,1.15,0,.17-.07.2-.46.4-.09.32-.66.93-.25,1.29-.28.45,0,1.16,0,1.62a1.25,1.25,0,0,0,.21.78c.19.63-.17,1.24.15,1.87a.61.61,0,0,1,.14.72c.73.53.63,1.09,1,1.61-.09.29,1,.6.47.87-.06.73.94,1.19.91,2.19A1.22,1.22,0,0,1,3.5,35c-.59.53.21,1-.57,1.55-1.22.37.23.48-.35.94.15.36.29.72,0,1.08.55.41-.28.8-.11,1.16-1.55.59-.63,1-.28,1.67.21.5,1.08,1,0,1.53.72.66-.1,1.32-.36,2a3.3,3.3,0,0,0-.52,1.93c0,.73-.55,1.54-.18,2.36-.72.81.2,1.64.09,2.39.21.72-.24,1.39.14,2.1.65.51-.37.86.32,1.32-.24.44.61.83.4,1.25s.84.8.53,1.19c.62.4.85.81.16,1.29A3.33,3.33,0,0,1,3,61c-.1.44.33,1-.32,1.41-.44.35.19.29-.58.32a.66.66,0,0,0-.56.83c.06.51.46.52.38.83-.35.28.06.65.54.95.11.39.78.71.76,1.2.21.52-.74,1.08.06,1.64a3,3,0,0,1-.07,1.65,1.33,1.33,0,0,0,0,.81c.12.41-.56.33-.54.45-.41.08-.69.2-.75.44-.33.37.29,1.34,0,1.75-.3.59-.38.67.49,1.09.27.26.42.53.11.81-.34.48,0,1,.33,1.43A8.21,8.21,0,0,0,3,78a2.5,2.5,0,0,1,.07,2.23c-.72.75-.22,1.5-.21,2.19-.43.73.13,1.45-.23,2.2.84.4-.37.76.14,1.14-.57.34-.15.59-.16,1a1.13,1.13,0,0,1-.31,1.64c-.23.41.15.68-.27,1.14-.11.46.32.92,0,1.38.31.49-.84.95-.21,1.43-.25.52,0,1,.1,1.56-.46.5-.12,1,.1,1.48s.35,1,0,1.49c.71.49.44,1,.06,1.53.94.52-.19,1-.07,1.53.37.4-.46.77-.34,1.17a3.72,3.72,0,0,0,0,1.37c0,.83-.39,1.66,0,2.49-.11.65-.84,1.21-.23,1.81.23.63-.27,1.35-.54,2-.12.48.07.92-.31,1.38-.9.45-.25.91-.28,1.4-.66.86.07,1.54.74,2.33a.75.75,0,0,1,.33.92c.36.35.87.79.51,1.18-.25.56-1.21,1.23,0,1.81-.17.7-1.2,1.41,0,2.12.62.71-.71,1.62.18,2.1.5.89.31,1.1.08,1.37-.8.81.19.91,0,1.4-.79-.53-.45,1.21,0,1.4-.06.59.08,1-.23,1.38.58.51,0,1.54-.13,1.06-.12.31.18.17-.2.63.37,1.48,1,1,1.76.55.46-.39,2-.85,2.28-.22.3.14.45-.3,1.12-.11.59-.77.84-1,1.09-.64.49,0,1.52-.81,1.52,0,.62-.09.88.15,1.82.32.52-.14.9-.26,1.06.41.37.63.82-.17,1.27.09.45-.78.91-.3,1.29-.05.48.08.36.13.72-.29.55.07,1.37-.76,2-.49a6.19,6.19,0,0,0,2.13-.54c.73.06,1.47.58,2.16.08.81-.15,1.51,1,2.38.67.34.22.68-.89,1,0,.17-.15.68.06.91,0s.16-.08.28-.24a7.87,7.87,0,0,1,1.83-.39c.55-.17,1-.56,1.59-.71.65-.39,1.28-.14,2-.19.42.23.85-.22,1.29,0,.43-.66.86-.23,1.28,0,.43,0,.73-.51.5-.72.42-.47,1.42-.21,1.87-.07.52.47,1-.49,1.57,0a3.62,3.62,0,0,0,2.23,0c1-.24,1.85-.74,2.74.28.9.34,1.79.92,2.72.46.66,0,1.22.34,1.86.18.54-.36,1.1,1,1.64.34.21-.1.66.38.94.31.47.05,1,1,1.48,0,.34-.07.65-.83,1-.09.52.07.59.07,1.19-.31.78-.61,1.57-.21,2.35,0a20.35,20.35,0,0,1,2.33-.2c.51-.18,1,.3,1.47-.26s1,0,1.49-.14c.62.57,1.31-.28,1.92,0a2.73,2.73,0,0,1,2.14.58c.32.47.64-.52,1,0a4.2,4.2,0,0,1,1.78.27c.53-.56.93,1,1.5.74.26-.19.58.51.84,0,.86-.42,1.57.15,2.41-.34.39.44.79-.46,1.19-.23.7.38,1.39-.45,2.09-.51a1.23,1.23,0,0,1,1.26-.33c.21-.73.41-.41.65-.37.55-.5,1.48.08,2,.24a2.62,2.62,0,0,1,1.84.62,4.33,4.33,0,0,0,1.83.68c.52-.6,1.08.61,1.64.25.56.47,1.12.62,1.67,0,.63,0,1.25.74,1.86,0,.62-.46,1.23-.1,1.86-.18,1.06.21,2.15-.75,3.24-.25s2.21-.85,3.31,0c1.1-.21,2.19-.56,3.26,0,1,.11,1.92-1,2.86-.57a1.82,1.82,0,0,1,2.85-.56,2.44,2.44,0,0,0,1.93,0c.19.44.33-.74.53-.31a7.75,7.75,0,0,1,1.6,0c.48.73,1,.6,1.49,0,.49-.45,1,0,1.42.21a1.59,1.59,0,0,0,1.11.21c.44,1,.65.26,1.1.19s.84.07,1.22.55c.38,0,.73.87,1,.94.71.84,1.15,1,2.05.31.5-.35,1-.11,1.53-.16.51-.58,1-.4,1.52-.12.79,0,1.58.46,2.32-.53.57.1,1.12-1.1,1.71-.86a1.47,1.47,0,0,1,2.16-.13,2.68,2.68,0,0,1,2.25,0c.4-.19.88.08,1.28,0,.49.1.75-.9,1.27-.15.59.19,1.15.8,1.71.66.56.33,1.11-.37,1.7.66.54.44,1.07.15,1.61,0,.53-1,1.07.18,1.6-.18s1.2,0,1.8,0c.61,1.31,1.28.61,1.8,0a3.31,3.31,0,0,0,1.86.38c.44,1.68.6.24,1.79,1.08.41.11.2,1.05.87,0C148.88,129.33,149.55,130.38,150.65,129.85Z"/>
    </g>
  </g>
</svg>
